# xmcd
#
# Track frame offsets: 
#        150
#        15023
#        27790
#        42530
#        61550
#        76501
#        89935
#        105396
#        120310
#        132668
#        145229
#        159006
#        170755
#        188226
#        206739
#        219238
#        238039
#        253647
#        268420
#        280586
#        292501
#        308053
#        323365
#        336168
#
# Disc length: 4661 seconds
#
# Revision: 0
# Processed by: cddbd v1.5.2PL0 Copyright (c) Steve Scherf et al.
# Submitted via: ExactAudioCopy v1.1
#
DISCID=40123318
DTITLE=Various Artist - Top 40 Carnaval Hits - The Ultimate Top 40 Collection
DTITLE=Various Artist - CD 1
DYEAR=2019
DGENRE=Folklore
TTITLE0=Frans Bauer - Heb Je Even Voor Mij
TTITLE1=Snollebollekes - Vrouwkes
TTITLE2=André Van Duin - Er Staat Een Paard In De Gang
TTITLE3=Guus Meeuwis and Vagant - Per Spoor (Kedeng Kedeng)
TTITLE4=Jannes - Een Beetje Meer
TTITLE5=Ed Nieman - Leve De Lol (Partymix)
TTITLE6=Stef Ekkel - Op 'n Terrasje (Goldfinger Remix)
TTITLE7=Gebroeders Ko Feat. Factor 12 - De Blauwe Stier
TTITLE8=Henkie - Lief Klein Konijntje
TTITLE9=Johnny and Rijk - De Bostella
TTITLE10=René Schuurmans - Handen In De Lucht
TTITLE11=Zware Jongens - Lege Krattenwals
TTITLE12=René Riva - C'Est La Vie (Goldfinger Remix)
TTITLE13=Feestteam M.m.v. Johnny Romein - De Vrolijke Koster
TTITLE14=DJ Goldfinger - Circus Renz
TTITLE15=Alex - Meissie Meissie
TTITLE16=Flair - A Si
TTITLE17=Arne Jansen - Meisjes Met Rode Haren
TTITLE18=SRV Mannen - Ojee! (Er Staat Een Rij Voor De WC)
TTITLE19=One Two Trio - Het La La Lied
TTITLE20=Feestteam - Eviva Espana
TTITLE21=De Deurzakkers - Zak Es Lekker Door!
TTITLE22=Vlemmix and Roos - Een Bussie Vol Met Polen
TTITLE23=Assekruus - Slavenkoor
EXTD=
EXTT0=
EXTT1=
EXTT2=
EXTT3=
EXTT4=
EXTT5=
EXTT6=
EXTT7=
EXTT8=
EXTT9=
EXTT10=
EXTT11=
EXTT12=
EXTT13=
EXTT14=
EXTT15=
EXTT16=
EXTT17=
EXTT18=
EXTT19=
EXTT20=
EXTT21=
EXTT22=
EXTT23=
PLAYORDER=
